:FULLY-SPECIFIED
:FORCE-ALL-JOINTS-BE-3DOF
:DEGREES
194
root 8.19526 16.5881 -10.1549 7.70551 3.56339 -3.23039
lfemur -37.4899 5.24693 -17.5623
ltibia 48.1716 0 0
lfoot -15.7348 12.8373 0
ltoes -9.15489 0 0
rfemur -9.02288 4.724 28.5596
rtibia 21.4982 0 0
rfoot -18.6711 2.66436 0
rtoes -12.479 0 0
lowerback -5.03139 1.73725 1.38665
upperback -1.71831 2.17372 3.34209
thorax 0.98314 1.10141 2.80559
lowerneck -13.6244 -6.77529 -15.613
upperneck 13.3607 -8.76809 16.0967
head 7.80038 -3.70739 6.98934
lclavicle -1.02615e-014 -1.65056e-014 0
lhumerus -49.8155 -10.9997 96.443
lradius 30.7849 0 0
lwrist 14.3513 0 0
lhand -15.5638 -25.5226 0
lfingers 7.12502 0 0
lthumb 10.6209 4.18774 0
rclavicle -1.02615e-014 -1.65056e-014 0
rhumerus -38.9413 9.83251 -79.3308
rradius 47.5239 0 0
rwrist -23.4032 0 0
rhand -32.6326 -26.939 0
rfingers 7.12502 0 0
rthumb -5.85945 -56.8373 0
195
root 8.20663 16.5795 -10.0151 7.74961 3.34097 -3.37363
lfemur -37.827 4.98284 -17.2437
ltibia 47.0253 0 0
lfoot -15.7493 12.9365 0
ltoes -9.56426 0 0
rfemur -8.08491 4.78715 28.6886
rtibia 20.6024 0 0
rfoot -18.4199 2.83703 0
rtoes -12.3969 0 0
lowerback -5.16037 1.77926 1.48772
upperback -1.68637 2.21514 3.36328
thorax 1.0903 1.1223 2.78069
lowerneck -13.6887 -6.75055 -15.5757
upperneck 13.4001 -8.73066 16.0619
head 7.8148 -3.68753 6.97574
lclavicle -1.05524e-014 -1.63645e-014 0
lhumerus -49.8671 -10.9329 96.419
lradius 30.5462 0 0
lwrist 13.9729 0 0
lhand -15.5065 -25.7651 0
lfingers 7.12502 0 0
lthumb 10.6761 3.9422 0
rclavicle -1.05524e-014 -1.63645e-014 0
rhumerus -38.9243 9.99173 -79.5529
rradius 47.7764 0 0
rwrist -23.5414 0 0
rhand -32.5881 -27.0162 0
rfingers 7.12502 0 0
rthumb -5.81652 -56.9156 0
196
root 8.21799 16.5708 -9.87528 7.79371 3.11854 -3.51687
lfemur -38.164 4.71876 -16.9251
ltibia 45.8789 0 0
lfoot -15.7638 13.0356 0
ltoes -9.97362 0 0
rfemur -7.14693 4.85031 28.8176
rtibia 19.7067 0 0
rfoot -18.1687 3.0097 0
rtoes -12.3148 0 0
lowerback -5.28934 1.82126 1.58879
upperback -1.65442 2.25657 3.38447
thorax 1.19745 1.1432 2.75579
lowerneck -13.753 -6.72581 -15.5383
upperneck 13.4394 -8.69324 16.0271
head 7.82921 -3.66767 6.96214
lclavicle -1.08434e-014 -1.62234e-014 0
lhumerus -49.9188 -10.866 96.3951
lradius 30.3075 0 0
lwrist 13.5945 0 0
lhand -15.4493 -26.0077 0
lfingers 7.12502 0 0
lthumb 10.7313 3.69665 0
rclavicle -1.08434e-014 -1.62234e-014 0
rhumerus -38.9073 10.151 -79.775
rradius 48.0288 0 0
rwrist -23.6797 0 0
rhand -32.5436 -27.0934 0
rfingers 7.12502 0 0
rthumb -5.77358 -56.9939 0
197
root 8.22936 16.5622 -9.73547 7.83781 2.89611 -3.66011
lfemur -38.5011 4.45467 -16.6065
ltibia 44.7325 0 0
lfoot -15.7784 13.1348 0
ltoes -10.383 0 0
rfemur -6.20896 4.91346 28.9467
rtibia 18.8109 0 0
rfoot -17.9175 3.18236 0
rtoes -12.2326 0 0
lowerback -5.41831 1.86326 1.68985
upperback -1.62247 2.29799 3.40567
thorax 1.30461 1.1641 2.73089
lowerneck -13.8173 -6.70107 -15.5009
upperneck 13.4788 -8.65581 15.9923
head 7.84363 -3.64781 6.94854
lclavicle -1.11344e-014 -1.60824e-014 0
lhumerus -49.9704 -10.7992 96.3712
lradius 30.0688 0 0
lwrist 13.2162 0 0
lhand -15.392 -26.2503 0
lfingers 7.12502 0 0
lthumb 10.7866 3.4511 0
rclavicle -1.11344e-014 -1.60824e-014 0
rhumerus -38.8903 10.3102 -79.9972
rradius 48.2812 0 0
rwrist -23.8179 0 0
rhand -32.4992 -27.1706 0
rfingers 7.12502 0 0
rthumb -5.73064 -57.0722 0
